<?xml version="1.0" encoding="utf-8"?>
<!-- Generator: Adobe Illustrator 25.2.0, SVG Export Plug-In . SVG Version: 6.00 Build 0)  -->
<svg version="1.1" id="Слой_1" xmlns="http://www.w3.org/2000/svg" xmlns:xlink="http://www.w3.org/1999/xlink" x="0px" y="0px"
	 viewBox="180 0 180 166.54" style="enable-background:new 0 0 1017.07 166.54;" xml:space="preserve">
<style type="text/css">
	.st2{fill:#FFFF00;}	
</style>


<path class="st2" d="M307.45,43.76c-1.36-4.82-3.28-9.32-5.75-13.48c-2.46-4.14-5.43-7.95-8.89-11.39
	c-3.48-3.44-7.32-6.36-11.5-8.79c-4.17-2.41-8.68-4.28-13.52-5.61c-4.84-1.31-9.85-1.96-15.04-1.93
	c-5.18,0.03-10.18,0.73-14.97,2.09c-4.8,1.38-9.3,3.29-13.48,5.75c-4.18,2.48-7.99,5.43-11.43,8.91c-3.44,3.48-6.38,7.32-8.83,11.49
	c-2.43,4.19-4.32,8.7-5.65,13.54c-1.33,4.84-1.96,9.85-1.93,15.02c0.03,5.2,0.71,10.18,2.09,14.98c1.38,4.8,3.31,9.28,5.79,13.48
	c2.5,4.18,5.47,7.99,8.95,11.43c3.48,3.44,7.32,6.38,11.52,8.81c4.21,2.45,8.72,4.34,13.54,5.65c4.8,1.33,9.81,1.98,14.99,1.95
	c5.2-0.03,10.2-0.73,15.02-2.11c4.82-1.36,9.32-3.29,13.46-5.79c4.16-2.48,7.97-5.45,11.41-8.93c3.42-3.48,6.36-7.32,8.77-11.52
	c2.43-4.23,4.3-8.72,5.61-13.54c1.33-4.82,1.98-9.81,1.95-15.01C309.53,53.59,308.83,48.59,307.45,43.76 M242.79,65.91
	c-2.79-1.42-5.67-2.25-7.6-4.68c-1.07-1.37-1.7-2.93-1.55-4.69c0.15-1.86,1.32-2.96,3.38-3.4c1.7-0.36,3.11,0.33,4.05,1.93
	c1.09,1.91,1.62,3.99,1.69,6.19C242.81,62.75,242.78,64.21,242.79,65.91 M253.22,93.76c-2.22,0.01-4.37-0.17-6.46-0.55l-0.11-21.58
	c0-0.25,0.04-0.48,0.05-0.68c2.13,0.14,4.1,0.38,6.09,0.37c1.93-0.01,3.88-0.27,5.91-0.44c0.02,0.25,0.06,0.56,0.06,0.85
	c0.04,7.17,0.05,14.36,0.13,21.53C257.04,93.59,255.15,93.75,253.22,93.76 M285.14,72.36c-1.81,4.2-4.27,7.89-7.38,11.05
	c-3.11,3.19-6.77,5.68-11.01,7.54c-1.35,0.59-2.72,1.08-4.11,1.47c-0.02-7.38-0.06-14.76-0.11-22.13c0-0.58,0.32-0.7,0.73-0.89
	c2.29-1.11,4.68-2.09,6.84-3.44c2.66-1.64,4.44-4.1,5.06-7.21c0.87-4.35-1.1-8.01-5.81-9.26c-4.06-1.08-7.2,1.2-8.79,4.26
	c-1.32,2.58-1.83,5.3-1.85,8.16c-0.01,1.43-0.02,2.88,0.04,4.31c0,0.54-0.15,0.81-0.67,0.87c-2.16,0.19-4.31,0.45-6.47,0.5
	c-1.37,0.05-2.75-0.24-4.12-0.38c-0.66-0.07-0.89-0.4-0.89-1.1c-0.01-2.24,0.02-4.48-0.25-6.7c-0.38-3.26-1.46-6.29-4.1-8.48
	c-2-1.67-4.32-1.93-6.75-1.18c-2.49,0.77-4.43,2.21-5.25,4.78c-0.91,2.88-0.22,5.57,1.36,8.07c1.68,2.6,4.16,4.19,6.93,5.39
	c1.26,0.53,2.54,1.09,3.82,1.6c0.48,0.21,0.47,0.58,0.47,0.98l0.11,21.72c-1.12-0.34-2.21-0.74-3.29-1.2
	c-4.24-1.81-7.93-4.27-11.11-7.42c-3.17-3.13-5.68-6.79-7.52-10.98c-1.86-4.18-2.79-8.66-2.81-13.45
	c-0.02-4.77,0.86-9.28,2.67-13.54c1.79-4.26,4.27-7.96,7.4-11.09c3.15-3.15,6.81-5.66,11.03-7.5c4.2-1.86,8.72-2.79,13.55-2.81
	c4.79-0.02,9.3,0.86,13.56,2.67c4.26,1.79,7.95,4.27,11.09,7.38c3.15,3.09,5.64,6.77,7.5,11.01c1.86,4.24,2.79,8.74,2.81,13.51
	C287.84,63.67,286.96,68.16,285.14,72.36 M263.99,55.22c1.49-2.75,5.05-3.12,6.95-0.65c0.88,1.12,0.77,2.43,0.48,3.71
	c-0.47,1.99-1.62,3.58-3.36,4.64s-3.57,1.93-5.53,2.99C262.48,62.04,262.21,58.51,263.99,55.22"/>


<path class="st2" d="M253.94,134.58c-10.65,0.06-21.3,0.1-31.94,0.18c-1.92,0.02-3.63-0.47-4.46-2.26c-0.88-1.89-0.95-3.92,0.24-5.8
	c0.74-1.17,1.9-1.67,3.2-1.87c0.49-0.08,0.99-0.06,1.48-0.07c21.09-0.11,42.18-0.22,63.27-0.33c2.74-0.01,4.42,0.94,5.02,3.12
	c0.69,2.51,0.26,5.3-2.11,6.34c-0.83,0.37-1.83,0.49-2.76,0.5C275.23,134.48,264.58,134.53,253.94,134.58"/>
<path class="st2" d="M253.98,140.97c9.29-0.05,18.58-0.1,27.87-0.14c2.42-0.01,3.99,1.14,4.58,3.34c0.64,2.4-0.19,4.91-2.12,5.94
	c-0.69,0.37-1.57,0.55-2.36,0.56c-18.58,0.12-37.17,0.22-55.75,0.31c-2.85,0.01-4.46-1.63-4.45-4.45c0-0.94-0.03-1.93,0.25-2.81
	c0.52-1.65,2.12-2.59,4.1-2.6C235.39,141.07,244.69,141.02,253.98,140.97"/>
<path class="st2" d="M254.03,156.61c6.8-0.04,13.6-0.07,20.4-0.1c1.58-0.01,1.82,0.19,1.47,1.51c-1.26,4.73-5.73,8.24-11.32,8.38
	c-6.94,0.17-13.89,0.18-20.84,0.12c-5.65-0.05-10.85-4.15-11.58-8.86c-0.16-1.03,0.55-0.93,1.31-0.93
	C240.33,156.69,247.18,156.65,254.03,156.61"/>
</svg>
